<svg width="756" height="1399" viewBox="0 0 756 1399" fill="none" xmlns="http://www.w3.org/2000/svg">
  <mask id="mask0_6_85" style="mask-type:alpha" maskUnits="userSpaceOnUse" x="0" y="-3" width="756" height="1408">
    <rect y="-3" width="756" height="1408" fill="#D9D9D9"/>
  </mask>
  <g mask="url(#mask0_6_85)">
    <path d="M1104 0H0V1399H1104V0Z" fill="url(#paint0_linear_6_85)"/>
    <path fill-rule="evenodd" clip-rule="evenodd" d="M201.416 427.692C200.372 428.586 200.372 430.015 201.416 430.908L203.1 432.367H197.354C193.817 432.367 190.451 433.767 188.119 436.209L168.219 457.052C166.823 458.511 164.804 459.345 162.681 459.345H161V463.841H162.681C166.218 463.841 169.584 462.442 171.916 460L191.812 439.156C193.212 437.697 195.23 436.864 197.354 436.864H203.939L201.416 439.007C200.372 439.901 200.372 441.36 201.416 442.253C202.464 443.147 204.159 443.147 205.203 442.253L212.488 436.03C213.171 435.434 213.171 434.482 212.488 433.916L205.203 427.692C204.159 426.769 202.464 426.769 201.416 427.692ZM164.359 430.253C167.774 430.253 171.021 431.623 173.27 433.975L179.288 439.961L175.724 442.849L169.705 436.834C168.358 435.434 166.409 434.601 164.359 434.601H161V430.253H164.359ZM188.798 455.92C191.047 458.302 194.298 459.642 197.712 459.642H204.291L201.416 462.114C200.372 463.007 200.372 464.437 201.416 465.33C202.464 466.223 204.159 466.223 205.203 465.33L212.488 459.107C213.171 458.541 213.171 457.588 212.488 456.993L205.203 450.769C204.159 449.876 202.464 449.876 201.416 450.769C200.372 451.662 200.372 453.122 201.416 454.015L202.913 455.295H197.712C195.662 455.295 193.713 454.461 192.362 453.062L187.994 448.089L184.311 451.245L188.798 455.92Z" fill="white"/>

  </g>
</svg>

