<svg width="756" height="1399" viewBox="0 0 756 1399" fill="none" xmlns="http://www.w3.org/2000/svg">
  <mask id="mask0_6_85" style="mask-type:alpha" maskUnits="userSpaceOnUse" x="0" y="-3" width="756" height="1408">
    <rect y="-3" width="756" height="1408" fill="#D9D9D9"/>
  </mask>
  <g mask="url(#mask0_6_85)">
    <path d="M1104 0H0V1399H1104V0Z" fill="url(#paint0_linear_6_85)"/>
    <rect x="65" y="67" width="183" height="178" fill="url(#paint1_linear_6_85)"/>
    <path d="M150 152C153.699 153.11 152.795 158.132 153.056 161C153.429 165.103 156.115 167.684 157 171.444C158.376 177.291 164.957 169.788 166 168C166.226 167.613 176.996 156.278 172 156C166.163 155.676 165.368 162.379 161 165" stroke="#02F4ED" stroke-width="3" stroke-linecap="round"/>
    <path d="M170 160C167.247 158.348 161.498 168.278 160.778 171C158.878 178.177 156.712 171.415 155.222 168C152.989 162.882 154 149.886 154 164C154 165.403 154.902 175.359 153.444 169.944C152.605 166.825 151.487 163.901 151.055 160.667C150.863 159.227 149 150.774 149 155.667C149 160.114 149.592 164.635 150.444 169C151.221 172.973 151.157 178.019 152.5 181.778C152.991 183.153 155.732 175.614 156 174.556C157.015 170.551 156.804 166.482 157.5 162.444C157.605 161.833 158.815 153.025 159.778 153.667C160.603 154.217 160 158.896 160 159.778C160 164.548 160.807 176.26 153.778 176C150.411 175.875 146.648 170.694 145.222 168C142.964 163.734 150.323 164.546 152 166.222C153.693 167.915 156.843 171.496 157 174C157.179 176.86 157 173.642 157 172.667C157 171.896 157 175.172 157 174C157 172.482 157 170.963 157 169.444C157 165.155 157.795 160.089 156.5 155.944C155.984 154.292 156.157 144.15 154.555 150.556C153.451 154.975 152.429 160.099 150.889 164.333C149.93 166.969 148.989 159.739 149 159.222C149.056 156.642 150.026 154.907 150.944 152.611C151.88 150.272 150.494 157.64 150 160.111C148.519 167.517 148.905 156.49 149.778 154.222C152.48 147.195 149.607 163.954 152.944 155.056C154.158 151.819 155.167 153.703 154.333 156.556C153.294 160.112 149 163.962 149 167.444C149 170.343 147.022 162.38 147 161.444C146.956 159.577 147 157.702 147 155.833C147 153.623 146.655 160.24 146.5 162.444C145.287 179.673 145.803 160.727 148 166C150.108 171.059 152.029 171 157.222 171C159.034 171 165.55 168.883 163.555 169C161.389 169.127 151.637 175.487 149.667 172.778C149.596 172.681 154.126 159.712 156.555 169C158.228 175.395 157.389 178.109 150.722 175.5C148.36 174.576 146.158 171.16 143.944 169.5C139.48 166.152 143.879 163.489 147.5 167.944C149.866 170.857 159.942 177.174 162 171" stroke="white" stroke-width="3" stroke-linecap="round"/>
    <path d="M159 141C157.63 141.342 158.57 152.854 158.889 153.889C160.325 158.557 160.478 163.012 162.722 167.5C164.633 171.322 161.145 176.12 161 179.889C160.96 180.939 157.414 185.084 156.555 182.722C156.163 181.643 156.078 175.673 157.972 176.778C159.884 177.893 157.139 182.932 160 178.389C160.842 177.052 160.505 176.374 159.055 177.306C157.167 178.52 160.409 177.061 161.111 176.389C162.609 174.956 165.711 173.199 166.389 171.222C167.276 168.636 163.18 171.853 162.583 172.167C158.126 174.507 153.51 171.226 150.583 167.75C149.201 166.109 149.629 160.051 150.611 158.389C152.932 154.46 158.311 153.445 158.5 159.111C158.535 160.166 158.5 162.278 158.5 162.278C158.5 162.278 158.659 159.961 158.444 158.833C157.913 156.041 151.545 165.707 152.278 165.917C154.235 166.476 163.078 155.781 162.889 155.611C161.44 154.307 147.878 165.161 158.611 157.111C163.055 153.778 158.982 159.991 158 161.5C157.667 162.011 153.53 167.734 154.055 167.944C154.744 168.22 155.876 167.627 156.444 167.389C160.451 165.712 164.149 163.361 167.778 161C170.977 158.918 174.123 156.799 177.555 155.111C180.588 153.619 180.203 155.019 178.833 157.417C176.098 162.204 171.449 165.583 168.861 170.361C167.559 172.765 170.217 167.97 170.389 167.611C171.293 165.718 174.797 160.499 173.944 162.417C173.181 164.134 171.867 165.486 170.611 166.861C168.306 169.386 166.244 172.211 163.889 174.667C161.079 177.596 165.034 173.52 165.778 172.833C168.586 170.241 171.462 167.696 174.555 165.444C174.6 165.412 178.389 162.855 178.389 163.389C178.389 166.38 172.552 171.027 170.611 172.778C170.242 173.11 165.697 176.956 165.528 176.194C165.149 174.489 165.894 172.708 166.722 171.278C168.636 167.972 168.055 170.617 166.778 172.722C165.803 174.329 162.006 180.944 159.778 180.944C159.055 180.944 163.8 174.957 164.111 174.556C165.359 172.944 167.881 171.215 168.611 169.389C169.529 167.095 168.318 170.879 167.583 171.889C166.339 173.6 167.798 171.913 168.611 171.389C169.977 170.508 173.432 168.416 173.944 166.75C174.601 164.617 174.139 163.077 176.278 161.889C177.965 160.952 179.465 159.955 181 158.5C182.137 157.423 183.16 156.285 184.222 155.222C185.255 154.19 182.573 160.126 182.333 160.583C181.645 161.898 179.412 163.703 181.5 161.5C182.4 160.55 182.188 159.539 182.778 158.528C183.399 157.463 184.143 156.829 184.611 155.611C185.293 153.838 187 152.871 187 150.778C187 149.268 187 147.759 187 146.25C187 140.937 184.667 141.37 180.389 139.889C177.335 138.832 177.653 139.685 174.694 141C172.902 141.797 171.818 145.362 171.528 147.25C171.262 148.974 171.284 151.395 171.611 153.111C172.294 156.695 173.027 155.059 175.5 156.222C176.713 156.793 177.741 157.565 178.833 156.278C179.004 156.077 181.401 153.865 180.222 153.528C175.17 152.084 168.277 155.779 164.805 159.25C162.164 161.891 170.061 160.329 170.778 159.889C172.703 158.706 174.324 156.615 175.194 154.528C175.538 153.704 169.303 158.079 168.722 158.556C167.686 159.405 165.42 161 168 161C169.123 161 170.47 161.209 171.5 160.694C171.866 160.511 175.29 158.103 174.389 157.611C173.563 157.161 169.035 162.342 168.472 162.806C167.941 163.243 170.849 162.831 171.278 162.639C173.251 161.754 175.11 159.403 176.111 157.5C176.886 156.028 176.089 156.175 174.861 156.833C171.359 158.709 166.955 160.572 163.833 163C162.225 164.251 163.474 164.706 164.833 164.167C166.469 163.517 168.155 162.954 169.778 162.278C170.474 161.987 172.301 160.355 170.889 161.639C168.057 164.213 165.496 167.13 163.111 170.111C162.311 171.111 163.722 169.894 164.055 169.417C164.832 168.308 166.171 166.605 166.472 165.25C166.763 163.94 164.794 165.816 164.611 166.389C164.086 168.03 167.201 165.78 167.333 165.667C170.484 162.951 173.817 161.341 177.5 159.5C179.847 158.326 181.867 157.031 184.194 155.778C186.637 154.463 184.794 158.469 184.5 159.278C183.775 161.272 182.185 161.091 180.5 161.889C179.788 162.226 178.765 162.788 178.028 162.972C177.609 163.077 178.507 162.252 178.778 161.917C179.839 160.602 180.721 159.239 182 158.111C182.916 157.303 184.447 156.265 184.5 154.889C184.599 152.319 179.469 157.966 178.528 158.722C174.616 161.864 170.216 164.416 166.5 167.778C164.538 169.553 170.01 163.803 171.972 162.028C173.936 160.251 176.084 158.833 178.222 157.306C179.392 156.47 176.508 159.618 175.555 160.694C172.753 163.863 170.011 167.365 166.722 170.056C163.236 172.908 164.038 170.032 164.833 167.222C165.397 165.232 166.438 163.649 167.722 162.056C169.438 159.925 169.729 160.066 167.5 162.278C163.489 166.257 159.184 169.992 155 173.778C154.262 174.445 154.5 170.062 154.5 169.778C154.5 166.173 156.664 163.558 159.111 161.111C160.52 159.702 161.937 158.732 160.917 161.667C160.185 163.769 159.272 165.744 158.055 167.611C157.546 168.393 156.555 169.394 156.555 170.417C156.555 171.004 157.548 169.766 157.944 169.333C160.422 166.631 163.015 164.033 165.5 161.333C165.928 160.868 169.314 156.884 168.778 157.222C167.81 157.833 159.998 165.439 160.583 162.611C161.574 157.825 166.891 155.304 170.555 152.833C170.684 152.747 172.607 150.908 172.028 151.556C169.001 154.938 165.762 157.762 162 160.333C160.47 161.379 154.354 165.235 157.639 160.417C159.721 157.362 162.464 155.166 165.389 153C165.461 152.947 158.12 154.611 156.5 155.111C156.258 155.186 151.193 156.99 154.555 155.333C159.736 152.782 165.195 150.849 170.5 148.583C171.9 147.985 175.201 147.121 176.305 145.833C177.083 144.926 174.111 146.781 173 147.222C168.783 148.897 164.457 150.36 160.167 151.833C158.82 152.296 154.965 153.646 155.972 152.639C158.41 150.201 162.258 149 165.611 149C168.336 149 162.011 152.37 162.167 152.889C162.615 154.383 174.726 150.567 175.694 150.111C177.002 149.496 172.802 150.144 171.361 150.25C168.192 150.483 165.011 150.548 161.833 150.5C159.659 150.467 163.141 149.028 163.889 149C164.546 148.976 157.32 152.915 155.889 153.417C149.137 155.786 156.494 152.073 158.722 151.111C161.172 150.053 163.752 149.121 166.444 149C167.757 148.941 167.492 149.575 166.444 150.028C161.466 152.18 154.889 153.592 149.528 154.417C145.459 155.043 153.676 151.218 154.055 151.111C158.492 149.858 163.11 149.014 167.667 148.333C168.609 148.192 170.973 147.895 170.5 148.722C169.472 150.521 167.167 152.938 165.611 154.333C162.77 156.882 160.245 157.727 161.5 161.806C162.319 164.468 163.5 167.392 163.5 170.222C163.5 172.499 161.722 174.725 161.722 176.667C161.722 177.209 162.304 176.698 162.389 176.5C162.964 175.159 162.5 172.712 162.5 171.333C162.5 170.02 163.433 158.701 161.778 158.5C158.217 158.068 154.5 163.804 154.5 166.861C154.5 167.982 153.819 171.594 155.111 172.111C157.085 172.901 157.474 171.854 157.972 169.861C158.643 167.178 159.447 161.903 158.222 159.278C157.471 157.669 154.998 157.222 153.444 156.778C147.365 155.041 143.942 157.563 142.722 164.167C141.75 169.429 148.458 167.691 149.972 164.472C152.267 159.595 151.912 157.304 146.75 155.806C144.597 155.18 142.246 155.367 140.805 157.25C140.046 158.243 139.56 160.896 140.833 161.778C141.807 162.452 144.814 162.439 146.028 162.722C147.179 162.991 150.419 161.642 148.889 160.111C146.89 158.112 139.055 162.219 139.055 164.944C139.055 165.833 141.09 165.644 141.611 165.278C142.43 164.702 145.608 159.031 144.472 158.889C143.689 158.791 144.362 162.861 146.722 160.5C148.612 158.61 150.397 154.276 150.5 151.611C150.658 147.493 142.513 154.438 141.861 155.167C140.729 156.431 140.875 157.042 142.5 157C146.182 156.906 148.63 155.37 151.167 152.833C151.306 152.694 153.404 150.753 152.167 150.528C148.777 149.912 145.475 151 142.722 152.889C140.754 154.239 139.266 155.259 139.528 157.75C139.703 159.412 141.304 159.11 142.611 158.889C144.409 158.584 146.402 157.377 147.278 155.722C147.514 155.276 147.849 153.173 147.194 153.028C145.029 152.547 141.802 156.005 140.722 157.5C140.375 157.98 138.001 161.992 140.028 160.472C141.126 159.649 148.286 151.437 146.389 151.5C145.048 151.545 143.732 152.144 142.611 152.833C142.439 152.939 139.482 155.226 139.583 154.667C139.833 153.292 142.922 148.744 141.778 147.667C141.356 147.27 137.046 153.598 136.833 154.556C136.617 155.53 140.223 154.909 140.75 153.972C141.825 152.062 141.575 147.876 139.472 151.556C138.532 153.201 137.652 154.557 138.25 156.472C138.363 156.834 139.437 159.455 139.5 157.889C139.647 154.211 136.183 155.107 134.389 157.611C134.091 158.026 131.941 161.408 133.5 161.5C134.127 161.537 135.309 161.705 135.75 161.167C137.143 159.464 135.702 155.625 136.028 158.556C136.5 162.804 138.391 160.054 136.889 157.5C136.566 156.951 132.105 163.5 136 163.5C137.85 163.5 140.074 162.528 137.222 160.972C134.711 159.602 133.067 157.141 132.25 154.528C131.898 153.401 132.293 153.184 132.472 152.111C132.85 149.846 131.826 156.841 132.611 159C132.754 159.394 132.5 154.919 132.5 153.889C132.5 153.093 132.5 152.296 132.5 151.5C132.5 149.907 132.582 154.689 132.472 156.278C132.455 156.528 131.395 160.911 130.611 160.389C130.214 160.124 130.5 158.204 130.5 157.75C130.5 154.23 130.369 150.505 130.5 147.111C130.651 143.186 136.949 141.992 138.5 139.278C138.944 138.5 142.089 139.054 143 139C144.344 138.921 141.595 137.606 141.25 137.5C139.791 137.051 139.005 136.99 137.5 137.389C136.917 137.543 134.793 141.15 134.5 142.028C133.887 143.866 132.63 145.6 132 147.333C131.453 148.838 132.224 152.549 129.5 151.889C127.192 151.329 128.35 148.849 128.5 147.5C128.569 146.881 131.708 143.294 132.222 143C133.048 142.528 133.589 139.783 134.722 139.028C135.2 138.709 133.568 138.947 133 139.028C131.862 139.19 131.501 140.296 131.111 141.222C130.776 142.018 130.659 145.904 131.222 146.5C131.334 146.619 132.802 147.491 132.889 147.389C133.181 147.048 130.424 146.29 130.278 146.222C127.954 145.138 129.234 143.078 130.111 141.5C131.095 139.728 133.654 139 135.5 139C137.695 139 140.5 139.993 140.5 137.25C140.5 132.271 131.271 137.845 133.222 140.056C133.281 140.122 136.775 137.631 137.5 137.528C139.448 137.25 141.359 137 143.5 137C146.395 137 149.806 143.236 146.5 144.889C143.606 146.336 138.32 148.25 135.055 146.944C133.873 146.471 139.938 141.25 141.111 140.889C144.915 139.718 139.298 147.685 138.055 149C137.837 149.231 136.089 151.457 135.611 151.278C134.822 150.982 137.431 144.48 137.667 143.944C138.378 142.329 137.688 146.554 137.611 147C137.414 148.136 137 149.13 137 150.278C137 151.312 137.178 152.402 136.5 153.25C135.743 154.196 135.5 148.705 135.5 148.444C135.5 144.45 134.524 150.671 134.278 151.722C133.838 153.6 133.887 159.425 134 157.5C134.178 154.465 134 151.375 134 148.333C134 146.537 134.051 151.927 134 153.722C133.963 155.032 132.993 155.412 131.75 154.889C130.027 154.164 127.136 148.364 129 146.5C131.88 143.62 133.769 157.087 134.389 158.167C135.102 159.408 137.137 159.047 138.333 159C142.284 158.846 145.219 156.507 146.944 153.056C147.721 151.503 149.687 146.655 148.417 144.75C147.352 143.152 142.528 143.123 141.389 144.389C140.931 144.897 137.025 152.22 140.111 152C143.994 151.723 143.987 145.471 145.194 143.056C146.338 140.769 141.415 148.018 142.611 150.278C143.263 151.508 143.947 148.729 143.972 148.5C144.208 146.378 144 144.139 144 142C144 140.099 144.671 142.091 145.055 142.778C146.036 144.529 147.6 146.336 148.389 148.111C148.962 149.4 150.832 153.186 148 151.972C145.921 151.081 143.328 145.725 144.028 143.278C144.32 142.255 146.291 143.851 146.528 144.111C147.929 145.653 150 149.321 150 151.5C150 151.782 144.174 149.442 143.5 149.222C141.885 148.696 138.966 147.796 138 146.167C136.082 142.93 139.106 142.599 141.25 144.028C142.074 144.577 142.489 148.334 142.5 148C142.548 146.57 142.364 145.284 141.722 144C139.634 139.825 143.367 147 144.389 147C146.258 147 146 143.301 146 142C146 140.444 145.38 139.163 144.75 137.778C143.721 135.515 141.422 136 139.305 136C137.807 136 139.255 135.111 140 135.028C140.982 134.919 142.011 135 143 135C145.44 135 147.131 134.735 149 136.5C150.001 137.445 150.431 139.414 151.75 140C153.143 140.619 152.5 144.451 152.5 145.778C152.5 149.29 150.5 143.691 150.5 142.389C150.5 140.927 149.929 136.151 150 140.278C150.021 141.501 150.527 146.871 150.5 146C150.451 144.444 149.647 143.867 148.778 142.75C147.786 141.475 147.461 139.786 146.75 138.222C145.604 135.702 146.697 139.7 147.028 140.444C147.548 141.616 148.282 144.212 149.5 144.889C151.006 145.726 151.193 148.151 153.111 148.889C154.397 149.384 154.469 149.246 155.5 150.278C156.45 151.228 157.104 151.698 156.75 150C156.495 148.775 155.955 146.56 154.389 146.5C153.32 146.459 151.78 145.692 151 146.583C149.668 148.106 146.169 154.907 151 153.389C154.061 152.427 153.914 147.139 157.389 147C160.199 146.888 154.99 141.773 154 141.278C150.966 139.761 155.307 144.481 155.944 145.028C157.628 146.471 154.305 142.93 153.889 141.889C153.417 140.709 152.709 140.35 151.722 139.722C150.262 138.793 151.51 138.642 152.5 139.111C156.995 141.24 159.389 144.506 158.972 149.722C158.641 153.857 156.5 157.594 156.5 161.889C156.5 162.894 156.886 171.706 159.611 168.667C162.66 165.266 162.422 157.131 162.5 152.944C162.535 151.087 161.801 147.758 162.805 145.972C163.416 144.887 165.667 142 163.389 144.5C163.14 144.773 156.322 151.507 156.583 149.417C156.905 146.841 161.088 143.909 162.889 142.333C164.259 141.135 160.833 145.832 159.055 146.222C157.61 146.539 160.393 142.662 160.778 142.278C161.765 141.29 166.166 139.572 167.5 139.5C173.221 139.191 169.121 143.051 166.222 144.5C165.704 144.759 164.387 145.17 164.111 145.722C163.863 146.219 167.731 143.438 168.472 142.75C168.577 142.653 171.307 140.202 171.389 141.222C171.635 144.302 166.149 148.186 163.861 149.667C162.166 150.764 164.24 148.21 164.528 147.944C166.208 146.394 167.976 144.22 170.278 143.611C174.071 142.607 168.592 151.073 168.5 148.389C168.447 146.842 168.368 145.336 168.889 143.889C169.276 142.813 170.204 142.052 169.972 140.778C169.309 137.13 163.351 144.013 162.778 144.75C161.934 145.835 162.457 145.406 163.055 144.167C163.584 143.071 164.328 140.8 165.5 140.111C168.003 138.639 166.622 138.143 164.333 139.111C163.764 139.352 162.421 140.921 164.278 139.611C165.293 138.894 167.505 138.219 168.75 138.028C170.606 137.742 172.45 137.428 174.25 137.028C178.795 136.018 181.5 138.682 181.5 143.111C181.5 145.852 181.059 147.784 180.278 150.389C180.156 150.794 180.793 148.485 180.805 148.444C181.404 146.511 182.388 145.389 183.778 144C185.275 142.502 185.5 143.118 185.5 145.111C185.5 146.346 185.5 156.357 185.5 150.222C185.5 145.78 180.885 153.323 180.611 155C180.207 157.474 181.728 154.61 182 153.889C182.591 152.324 182.673 150.425 182.972 148.778C183.477 145.999 183 149.086 183 150.556C183 152.491 182.681 154.762 183.028 156.667C183.184 157.523 186.563 154.152 186.889 153.5C187.539 152.2 187 149.341 187 147.889C187 147.448 186.772 145.457 187.111 146C187.907 147.274 188.5 147.037 188.5 148.75C188.5 150.313 189.063 153.401 188.222 154.722C186.378 157.62 186.5 156.433 186.5 153.611C186.5 150.706 186.343 149.1 185.111 146.5C183.785 143.701 180.969 149.76 179.75 151.167C178.929 152.114 178.195 152.955 177.333 153.889C177.221 154.01 176.983 154.854 176.889 154.889C176.502 155.034 176.5 151.817 176.5 151.556C176.5 149.532 177.5 147.739 177.5 145.778C177.5 144.31 177.46 148.254 177.389 148.722C177.17 150.17 176.414 152.285 176.583 153.722C176.872 156.176 178.345 150.735 178.389 150.444C178.607 148.986 179.977 142.763 178.667 147.528C178.234 149.102 176.034 155.129 176.611 150.222C176.771 148.866 176.822 146.142 177.75 145.028C177.997 144.732 178.545 143.183 178.417 142.861C178.057 141.963 177.327 144.473 176.944 145.361C176.094 147.333 175.013 149.118 174 151C171.512 155.62 174.461 144.635 174.5 143.611C174.557 142.115 177.5 139.464 177.5 142.611C177.5 144.63 175.022 153.465 178.25 148.444C179.484 146.524 181.028 144.816 179.5 142.389C178.152 140.248 175.571 141 173.278 141C171.933 141 171.037 141.078 170 142C169.082 142.816 170.532 140.922 171.222 140.528C172.303 139.91 176.794 139.326 175.222 137.306C174.285 136.1 171.85 135.932 170.5 136C169.386 136.056 168.716 137 167.583 137C166.923 137 168.841 136.535 169.5 136.5C173.115 136.31 176.922 135.114 180.222 137C181.403 137.675 183 140.152 183 141.5C183 142.745 182.389 147.766 182.5 144C182.548 142.351 183.878 139.413 182.75 137.833C182.703 137.768 184.188 139.332 184.389 139.889C184.823 141.095 184.541 143.018 184.472 144.222C184.342 146.497 182.97 149.575 181 150.889C180.215 151.412 180.168 152.577 179.278 153.306C177.823 154.496 176.536 155.939 175 157.111C172.304 159.169 169.348 161.736 167.028 164.25C164.742 166.726 163.119 168.5 159.444 168.5C156.419 168.5 153.912 167.437 151.278 166C148.238 164.342 146.704 163.85 146.389 160.278C146.196 158.089 144.793 152.726 147.305 151.306C150.635 149.424 155.603 149.246 159 150.944C163.744 153.317 164.045 157.449 165 162.111C165.241 163.288 165.989 165.565 165.417 166.806C164.019 169.833 157.476 170.247 154.778 168.944C152.642 167.913 151.286 166.278 150.222 164.222C148.885 161.638 147.045 158.75 147.722 164.056C148.861 172.973 155.577 178.064 162.389 170.778C166.727 166.137 169.664 160.183 174.278 155.833C176.314 153.914 177.606 151.777 179.25 149.528C179.846 148.712 184.631 143.619 185.722 145.333C186.954 147.268 184.646 150.699 183.417 152C179.935 155.686 175.777 158.398 171.222 160.5C169.288 161.392 172.118 158.207 172.389 157.944C173.47 156.896 178.555 154.408 175 155" stroke="white" stroke-width="3" stroke-linecap="round"/>
  </g>
  <path d="M186.125 137.638C184.529 136.126 182.634 134.927 180.548 134.109C178.462 133.291 176.227 132.87 173.969 132.87C171.711 132.87 169.475 133.291 167.39 134.109C165.304 134.927 163.409 136.126 161.813 137.638L158.5 140.774L155.188 137.638C151.963 134.586 147.591 132.871 143.031 132.871C138.472 132.871 134.099 134.586 130.875 137.638C127.651 140.69 125.84 144.83 125.84 149.146C125.84 153.462 127.651 157.602 130.875 160.654L158.5 186.805L186.125 160.654C187.722 159.143 188.989 157.349 189.853 155.374C190.717 153.4 191.162 151.283 191.162 149.146C191.162 147.009 190.717 144.892 189.853 142.918C188.989 140.943 187.722 139.149 186.125 137.638Z" stroke="white" stroke-width="4" stroke-linecap="round" stroke-linejoin="round"/>
  <defs>
    <linearGradient id="paint1_linear_6_85" x1="74.6708" y1="67" x2="238.329" y2="245" gradientUnits="userSpaceOnUse">
      <stop stop-color="#00527C"/>
      <stop offset="0.46074" stop-color="#0074AF"/>
      <stop offset="1" stop-color="#0096E2"/>
    </linearGradient>
  </defs>
</svg>

