<svg width="756" height="1399" viewBox="0 0 756 1399" fill="none" xmlns="http://www.w3.org/2000/svg">
  <mask id="mask0_6_85" style="mask-type:alpha" maskUnits="userSpaceOnUse" x="0" y="-3" width="756" height="1408">
    <rect y="-3" width="756" height="1408" fill="#D9D9D9"/>
  </mask>
  <g mask="url(#mask0_6_85)">
    <path d="M1104 0H0V1399H1104V0Z" fill="url(#paint0_linear_6_85)"/>
    <g filter="url(#filter0_d_6_85)">
      <path d="M100 473C119.882 473 136 456.882 136 437C136 417.118 119.882 401 100 401C80.1177 401 64 417.118 64 437C64 456.882 80.1177 473 100 473Z" fill="white"/>
      <path d="M113.286 437.512C114.152 437.027 114.152 435.812 113.286 435.326L93.818 424.397C92.953 423.911 91.871 424.518 91.871 425.49V447.349C91.871 448.321 92.953 448.928 93.818 448.442L113.286 437.512Z" fill="black"/>
    </g>
    <defs>
      <filter id="filter0_d_6_85" x="48" y="389" width="104" height="104" filterUnits="userSpaceOnUse" color-interpolation-filters="sRGB">
        <feFlood flood-opacity="0" result="BackgroundImageFix"/>
        <feColorMatrix in="SourceAlpha" type="matrix" values="0 0 0 0 0 0 0 0 0 0 0 0 0 0 0 0 0 0 127 0" result="hardAlpha"/>
        <feOffset dy="4"/>
        <feGaussianBlur stdDeviation="8"/>
        <feComposite in2="hardAlpha" operator="out"/>
        <feColorMatrix type="matrix" values="0 0 0 0 0 0 0 0 0 0 0 0 0 0 0 0 0 0 0.45 0"/>
        <feBlend mode="normal" in2="BackgroundImageFix" result="effect1_dropShadow_6_85"/>
        <feBlend mode="normal" in="SourceGraphic" in2="effect1_dropShadow_6_85" result="shape"/>
      </filter>
    </defs>
  </g>
</svg>

