<svg width="183" height="178" viewBox="0 0 183 178" fill="none" xmlns="http://www.w3.org/2000/svg">
<mask id="mask0_20_13" style="mask-type:alpha" maskUnits="userSpaceOnUse" x="-65" y="-70" width="756" height="1408">
<rect x="-65" y="-70" width="756" height="1408" fill="#D9D9D9"/>
</mask>
<g mask="url(#mask0_20_13)">
<path d="M1039 -67H-65V1332H1039V-67Z" fill="url(#paint0_linear_20_13)"/>
<path d="M2453.33 -70H-65V1347H2453.33V-70Z" stroke="#00527C"/>
</g>
<rect width="183" height="178" fill="url(#paint1_linear_20_13)"/>
<path d="M85 85C88.699 86.1097 87.7948 91.132 88.0556 94C88.4286 98.1034 91.1151 100.684 92 104.444C93.3758 110.291 99.957 102.788 101 101C101.226 100.613 111.996 89.2775 107 89C101.163 88.6757 100.368 95.3792 96 98" stroke="#02F4ED" stroke-width="3" stroke-linecap="round"/>
<path d="M105 93C102.247 91.3483 96.4981 101.278 95.7777 104C93.8778 111.177 91.7122 104.415 90.2221 101C87.9888 95.882 88.9999 82.886 88.9999 97C88.9999 98.4027 89.902 108.359 88.4444 102.944C87.6046 99.8255 86.4867 96.9009 86.0555 93.6667C85.8635 92.2267 83.9999 83.7744 83.9999 88.6667C83.9999 93.1138 84.5915 97.6355 85.4444 102C86.2208 105.973 86.1574 111.019 87.4999 114.778C87.9911 116.153 90.7316 108.614 90.9999 107.556C92.0152 103.551 91.8038 99.4821 92.4999 95.4445C92.6053 94.8331 93.8148 86.0248 94.7777 86.6667C95.6031 87.217 94.9999 91.8964 94.9999 92.7778C94.9999 97.5483 95.8068 109.26 88.7777 109C85.4114 108.875 81.6481 103.694 80.2221 101C77.9638 96.7343 85.3235 97.5458 86.9999 99.2223C88.6926 100.915 91.8434 104.496 91.9999 107C92.1787 109.86 91.9999 106.642 91.9999 105.667C91.9999 104.896 91.9999 108.172 91.9999 107C91.9999 105.482 91.9999 103.963 91.9999 102.444C91.9999 98.1551 92.7951 93.089 91.4999 88.9445C90.9836 87.2924 91.1569 77.15 89.5555 83.5556C88.4507 87.9746 87.4285 93.0992 85.8888 97.3334C84.9304 99.9691 83.9887 92.7387 83.9999 92.2223C84.056 89.6422 85.026 87.9072 85.9444 85.6112C86.8802 83.2716 85.4941 90.6403 84.9999 93.1112C83.5189 100.517 83.9053 89.4905 84.7777 87.2223C87.4804 80.1952 84.6074 96.954 87.9444 88.0556C89.1582 84.8188 90.1667 86.7028 89.3333 89.5556C88.2943 93.112 83.9999 96.9619 83.9999 100.444C83.9999 103.343 82.0219 95.3802 81.9999 94.4445C81.956 92.5769 81.9999 90.7018 81.9999 88.8334C81.9999 86.6234 81.6552 93.2399 81.4999 95.4445C80.2866 112.673 80.8028 93.7269 82.9999 99C85.1077 104.059 87.0293 104 92.2221 104C94.0344 104 100.55 101.883 98.5555 102C96.3894 102.127 86.637 108.487 84.6666 105.778C84.5963 105.681 89.1264 92.7125 91.5555 102C93.228 108.395 92.3895 111.109 85.7221 108.5C83.3604 107.576 81.1579 104.16 78.9444 102.5C74.4801 99.1518 78.8795 96.4886 82.4999 100.944C84.866 103.857 94.9419 110.174 96.9999 104" stroke="white" stroke-width="3" stroke-linecap="round"/>
<path d="M93.9999 74C92.6302 74.3424 93.5703 85.8538 93.8888 86.8889C95.3252 91.5571 95.478 96.0116 97.7222 100.5C99.633 104.322 96.1449 109.12 95.9999 112.889C95.9595 113.939 92.4144 118.084 91.5555 115.722C91.1632 114.643 91.078 108.673 92.9722 109.778C94.8838 110.893 92.1393 115.932 94.9999 111.389C95.8416 110.052 95.5047 109.374 94.0555 110.306C92.1669 111.52 95.4088 110.061 96.111 109.389C97.6094 107.956 100.711 106.199 101.389 104.222C102.276 101.636 98.1804 104.853 97.5833 105.167C93.1262 107.507 88.5102 104.226 85.5833 100.75C84.2012 99.1088 84.6287 93.0513 85.611 91.3889C87.9325 87.4603 93.3111 86.445 93.4999 92.1111C93.5351 93.1661 93.4999 95.2778 93.4999 95.2778C93.4999 95.2778 93.6592 92.9613 93.4444 91.8333C92.9126 89.0414 86.5452 98.7074 87.2777 98.9166C89.2352 99.4759 98.0779 88.7813 97.8888 88.6111C96.4395 87.3067 82.8779 98.161 93.611 90.1111C98.0553 86.7779 93.982 92.9914 92.9999 94.5C92.6672 95.0112 88.5304 100.734 89.0555 100.944C89.7436 101.22 90.8756 100.627 91.4444 100.389C95.451 98.7117 99.1491 96.3612 102.778 94C105.977 91.9183 109.123 89.7993 112.555 88.1111C115.588 86.6195 115.203 88.0192 113.833 90.4166C111.098 95.2041 106.449 98.5827 103.861 103.361C102.559 105.765 105.217 100.97 105.389 100.611C106.293 98.7178 109.797 93.4992 108.944 95.4166C108.181 97.1342 106.867 98.4859 105.611 99.8611C103.306 102.386 101.244 105.211 98.8888 107.667C96.0792 110.596 100.034 106.52 100.778 105.833C103.586 103.241 106.462 100.696 109.555 98.4444C109.6 98.4117 113.389 95.8552 113.389 96.3889C113.389 99.3805 107.552 104.027 105.611 105.778C105.242 106.11 100.697 109.956 100.528 109.194C100.149 107.489 100.894 105.708 101.722 104.278C103.636 100.972 103.055 103.617 101.778 105.722C100.803 107.329 97.0056 113.944 94.7777 113.944C94.055 113.944 98.8002 107.957 99.111 107.556C100.359 105.944 102.881 104.215 103.611 102.389C104.529 100.095 103.318 103.879 102.583 104.889C101.339 106.6 102.798 104.913 103.611 104.389C104.977 103.508 108.432 101.416 108.944 99.75C109.601 97.617 109.139 96.0771 111.278 94.8889C112.965 93.9515 114.465 92.9546 116 91.5C117.137 90.423 118.16 89.2848 119.222 88.2222C120.255 87.1897 117.573 93.126 117.333 93.5833C116.645 94.898 114.412 96.7034 116.5 94.5C117.4 93.5499 117.188 92.5391 117.778 91.5278C118.399 90.4629 119.143 89.8289 119.611 88.6111C120.293 86.8376 122 85.871 122 83.7778C122 82.2685 122 80.7592 122 79.25C122 73.9366 119.667 74.3696 115.389 72.8889C112.335 71.8317 112.653 72.6852 109.694 74C107.902 74.7967 106.818 78.3616 106.528 80.25C106.262 81.9741 106.284 84.395 106.611 86.1111C107.294 89.6946 108.027 88.0586 110.5 89.2222C111.713 89.7929 112.741 90.5645 113.833 89.2778C114.004 89.0766 116.401 86.8645 115.222 86.5278C110.17 85.0842 103.277 88.7786 99.8055 92.25C97.1644 94.891 105.061 93.3292 105.778 92.8889C107.703 91.706 109.324 89.6155 110.194 87.5278C110.538 86.7037 104.303 91.0795 103.722 91.5555C102.686 92.4046 100.42 94 103 94C104.123 94 105.47 94.2094 106.5 93.6944C106.866 93.5113 110.29 91.1029 109.389 90.6111C108.563 90.1608 104.035 95.3423 103.472 95.8055C102.941 96.2428 105.849 95.8309 106.278 95.6389C108.251 94.7541 110.11 92.4029 111.111 90.5C111.886 89.0276 111.089 89.1754 109.861 89.8333C106.359 91.7092 101.955 93.572 98.8333 96C97.2251 97.2508 98.4744 97.7059 99.8333 97.1666C101.469 96.5174 103.155 95.9539 104.778 95.2778C105.474 94.9875 107.301 93.3552 105.889 94.6389C103.057 97.2131 100.496 100.13 98.111 103.111C97.3115 104.111 98.7215 102.894 99.0555 102.417C99.8316 101.308 101.171 99.6054 101.472 98.25C101.763 96.9401 99.7943 98.8163 99.611 99.3889C99.0858 101.03 102.201 98.7804 102.333 98.6666C105.484 95.9506 108.817 94.3413 112.5 92.5C114.847 91.3263 116.867 90.0308 119.194 88.7778C121.637 87.4627 119.794 91.4694 119.5 92.2778C118.775 94.2721 117.185 94.0908 115.5 94.8889C114.788 95.226 113.765 95.7878 113.028 95.9722C112.609 96.0769 113.507 95.2524 113.778 94.9166C114.839 93.6024 115.721 92.2392 117 91.1111C117.916 90.3027 119.447 89.265 119.5 87.8889C119.599 85.319 114.469 90.9662 113.528 91.7222C109.616 94.8636 105.216 97.4156 101.5 100.778C99.5379 102.553 105.01 96.8029 106.972 95.0278C108.936 93.2513 111.084 91.8329 113.222 90.3055C114.392 89.47 111.508 92.6178 110.555 93.6944C107.753 96.8626 105.011 100.365 101.722 103.056C98.2362 105.908 99.0381 103.032 99.8333 100.222C100.397 98.2318 101.438 96.6492 102.722 95.0555C104.438 92.9255 104.729 93.0663 102.5 95.2778C98.4892 99.2567 94.1845 102.992 89.9999 106.778C89.2622 107.445 89.4999 103.062 89.4999 102.778C89.4999 99.1728 91.6641 96.558 94.111 94.1111C95.5201 92.7021 96.9373 91.732 95.9166 94.6666C95.1853 96.7692 94.2715 98.7436 93.0555 100.611C92.5463 101.393 91.5555 102.394 91.5555 103.417C91.5555 104.004 92.5476 102.766 92.9444 102.333C95.4217 99.6308 98.0153 97.0329 100.5 94.3333C100.928 93.8681 104.314 89.8835 103.778 90.2222C102.81 90.8331 94.9981 98.4394 95.5833 95.6111C96.5735 90.8248 101.891 88.3044 105.555 85.8333C105.684 85.7469 107.607 83.9076 107.028 84.5555C104.001 87.9384 100.762 90.7617 96.9999 93.3333C95.4697 94.3794 89.3538 98.2347 92.6388 93.4166C94.7215 90.3621 97.4641 88.1664 100.389 86C100.461 85.9465 93.1201 87.6107 91.4999 88.1111C91.258 88.1858 86.1925 89.9897 89.5555 88.3333C94.7355 85.782 100.195 83.8495 105.5 81.5833C106.9 80.9852 110.201 80.1214 111.305 78.8333C112.083 77.9259 109.111 79.781 108 80.2222C103.783 81.8971 99.4573 83.3597 95.1666 84.8333C93.8201 85.2957 89.9655 86.6456 90.9722 85.6389C93.4101 83.2009 97.2577 82 100.611 82C103.336 82 97.0109 85.3699 97.1666 85.8889C97.6148 87.383 109.726 83.5666 110.694 83.1111C112.002 82.4957 107.802 83.144 106.361 83.25C103.192 83.483 100.011 83.5481 96.8333 83.5C94.6592 83.467 98.141 82.0277 98.8888 82C99.5457 81.9757 92.3198 85.9146 90.8888 86.4166C84.1367 88.7858 91.4944 85.0734 93.7222 84.1111C96.1721 83.0528 98.7516 82.1206 101.444 82C102.757 81.9412 102.492 82.5749 101.444 83.0278C96.4664 85.1804 89.8888 86.5919 84.5277 87.4166C80.4586 88.0427 88.6761 84.2182 89.0555 84.1111C93.4918 82.8582 98.1102 82.0142 102.667 81.3333C103.609 81.1924 105.973 80.8945 105.5 81.7222C104.472 83.5207 102.167 85.9378 100.611 87.3333C97.7695 89.8823 95.2449 90.7267 96.4999 94.8055C97.3193 97.4684 98.4999 100.392 98.4999 103.222C98.4999 105.499 96.7222 107.725 96.7222 109.667C96.7222 110.209 97.3039 109.698 97.3888 109.5C97.9636 108.159 97.4999 105.712 97.4999 104.333C97.4999 103.02 98.4335 91.7007 96.7777 91.5C93.2171 91.0684 89.4999 96.8043 89.4999 99.8611C89.4999 100.982 88.8194 104.594 90.111 105.111C92.0853 105.901 92.4739 104.854 92.9722 102.861C93.6428 100.178 94.4471 94.9027 93.2222 92.2778C92.4712 90.6687 89.9978 90.2216 88.4444 89.7778C82.3646 88.0407 78.9423 90.5634 77.7222 97.1666C76.7498 102.429 83.4577 100.691 84.9722 97.4722C87.2672 92.5953 86.9116 90.3041 81.7499 88.8055C79.5969 88.1805 77.2457 88.3666 75.8055 90.25C75.0463 91.2428 74.5598 93.8961 75.8333 94.7778C76.8066 95.4516 79.8136 95.4389 81.0277 95.7222C82.1794 95.9909 85.4193 94.6416 83.8888 93.1111C81.8895 91.1118 74.0555 95.2195 74.0555 97.9444C74.0555 98.8329 76.0905 98.6441 76.611 98.2778C77.4299 97.7015 80.6082 92.0309 79.4722 91.8889C78.6893 91.791 79.3615 95.8606 81.7222 93.5C83.6123 91.6099 85.3974 87.2757 85.4999 84.6111C85.6583 80.4933 77.5133 87.4376 76.861 88.1666C75.7294 89.4314 75.8745 90.0417 77.4999 90C81.182 89.9056 83.6298 88.3702 86.1666 85.8333C86.3062 85.6937 88.4035 83.7527 87.1666 83.5278C83.7773 82.9115 80.4748 84.0005 77.7222 85.8889C75.7544 87.2388 74.2655 88.2592 74.5277 90.75C74.7027 92.4122 76.3039 92.1104 77.611 91.8889C79.4089 91.5841 81.4018 90.3768 82.2777 88.7222C82.5138 88.2762 82.8489 86.1732 82.1944 86.0278C80.0293 85.5466 76.8017 89.0053 75.7222 90.5C75.3755 90.98 73.0013 94.992 75.0277 93.4722C76.1257 92.6487 83.2861 84.4367 81.3888 84.5C80.0476 84.5447 78.7319 85.1435 77.611 85.8333C77.4386 85.9395 74.4816 88.226 74.5833 87.6666C74.8332 86.2918 77.9225 81.7441 76.7777 80.6666C76.3562 80.2699 72.0461 86.5979 71.8333 87.5555C71.6167 88.5299 75.2229 87.9092 75.7499 86.9722C76.8246 85.0616 76.575 80.8756 74.4722 84.5555C73.5316 86.2015 72.6516 87.5574 73.2499 89.4722C73.3629 89.8336 74.4373 92.4554 74.4999 90.8889C74.647 87.2112 71.1834 88.107 69.3888 90.6111C69.0913 91.0263 66.9415 94.4083 68.4999 94.5C69.1271 94.5369 70.3093 94.7052 70.7499 94.1666C72.143 92.464 70.7021 88.6255 71.0277 91.5555C71.4998 95.8041 73.3909 93.0536 71.8888 90.5C71.5661 89.9514 67.1054 96.5 70.9999 96.5C72.8498 96.5 75.0739 95.5277 72.2222 93.9722C69.711 92.6025 68.0667 90.1413 67.2499 87.5278C66.8979 86.4013 67.2934 86.1836 67.4722 85.1111C67.8497 82.8456 66.8261 89.8415 67.611 92C67.7543 92.3939 67.4999 87.9194 67.4999 86.8889C67.4999 86.0926 67.4999 85.2963 67.4999 84.5C67.4999 82.9074 67.5817 87.6889 67.4722 89.2778C67.4549 89.5279 66.3946 93.9112 65.611 93.3889C65.2136 93.1239 65.4999 91.2035 65.4999 90.75C65.4999 87.2302 65.3694 83.5051 65.4999 80.1111C65.6509 76.1856 71.9492 74.9915 73.4999 72.2778C73.9441 71.5004 77.0889 72.0536 77.9999 72C79.3445 71.9209 76.5952 70.6062 76.2499 70.5C74.7905 70.0509 74.005 69.9905 72.4999 70.3889C71.9174 70.5431 69.7926 74.1498 69.4999 75.0278C68.8871 76.8664 67.6304 78.5996 66.9999 80.3333C66.4527 81.8383 67.2242 85.5493 64.4999 84.8889C62.1915 84.3293 63.3501 81.8487 63.4999 80.5C63.5688 79.8805 66.7075 76.294 67.2222 76C68.0485 75.5278 68.5893 72.783 69.7222 72.0278C70.1998 71.7093 68.5682 71.9466 67.9999 72.0278C66.8617 72.1904 66.501 73.296 66.111 74.2222C65.7761 75.0177 65.6593 78.904 66.2222 79.5C66.3344 79.6188 67.8016 80.4906 67.8888 80.3889C68.1806 80.0485 65.424 79.2905 65.2777 79.2222C62.9539 78.1378 64.2341 76.0785 65.111 74.5C66.0953 72.7283 68.6536 72 70.4999 72C72.6953 72 75.4999 72.9927 75.4999 70.25C75.4999 65.271 66.2715 70.8448 68.2222 73.0555C68.2806 73.1218 71.7754 70.6313 72.4999 70.5278C74.4477 70.2495 76.3585 70 78.4999 70C81.3953 70 84.8057 76.236 81.4999 77.8889C78.6057 79.336 73.3197 81.2501 70.0555 79.9444C68.8726 79.4713 74.9376 74.2499 76.111 73.8889C79.9155 72.7183 74.2978 80.6846 73.0555 82C72.8372 82.2312 71.089 84.457 70.611 84.2778C69.8217 83.9817 72.4309 77.48 72.6666 76.9444C73.3776 75.3285 72.6883 79.5537 72.611 80C72.4144 81.1359 71.9999 82.1295 71.9999 83.2778C71.9999 84.3123 72.1782 85.4022 71.4999 86.25C70.7431 87.196 70.4999 81.7054 70.4999 81.4444C70.4999 77.4498 69.5238 83.6708 69.2777 84.7222C68.8383 86.5996 68.8867 92.4248 68.9999 90.5C69.1785 87.4651 68.9999 84.375 68.9999 81.3333C68.9999 79.537 69.0512 84.9266 68.9999 86.7222C68.9625 88.0322 67.993 88.4123 66.7499 87.8889C65.0273 87.1635 62.1357 81.3642 63.9999 79.5C66.88 76.6199 68.7685 90.0868 69.3888 91.1666C70.1019 92.4079 72.1366 92.0466 73.3333 92C77.2843 91.846 80.2189 89.5065 81.9444 86.0555C82.7209 84.5026 84.6869 79.6554 83.4166 77.75C82.3516 76.1525 77.5285 76.1226 76.3888 77.3889C75.9311 77.8975 72.0252 85.2204 75.111 85C78.9944 84.7226 78.9866 78.4711 80.1944 76.0555C81.3378 73.7687 76.4148 81.0181 77.611 83.2778C78.2625 84.5083 78.9467 81.7295 78.9722 81.5C79.208 79.3778 78.9999 77.1395 78.9999 75C78.9999 73.0993 79.671 75.0912 80.0555 75.7778C81.0361 77.5288 82.5999 79.3361 83.3888 81.1111C83.9616 82.3998 85.8323 86.1861 82.9999 84.9722C80.9207 84.0811 78.3285 78.7251 79.0277 76.2778C79.32 75.2546 81.2913 76.851 81.5277 77.1111C82.929 78.6525 84.9999 82.3213 84.9999 84.5C84.9999 84.7815 79.1737 82.4419 78.4999 82.2222C76.8852 81.6957 73.9657 80.7963 72.9999 79.1666C71.0821 75.9304 74.1061 75.5986 76.2499 77.0278C77.0742 77.5773 77.4888 81.3341 77.4999 81C77.5476 79.5701 77.3641 78.284 76.7222 77C74.6344 72.8245 78.367 80 79.3888 80C81.2583 80 80.9999 76.3007 80.9999 75C80.9999 73.444 80.3797 72.1632 79.7499 70.7778C78.7213 68.5147 76.4218 69 74.3055 69C72.8075 69 74.255 68.1105 74.9999 68.0278C75.9823 67.9186 77.0106 68 77.9999 68C80.4399 68 82.1314 67.7352 83.9999 69.5C85.001 70.4454 85.4308 72.4137 86.7499 73C88.1434 73.6193 87.4999 77.4514 87.4999 78.7778C87.4999 82.2903 85.4999 76.6911 85.4999 75.3889C85.4999 73.9269 84.9288 69.1514 84.9999 73.2778C85.021 74.5013 85.5272 79.8711 85.4999 79C85.4513 77.444 84.6467 76.8672 83.7777 75.75C82.7859 74.4748 82.4607 72.7859 81.7499 71.2222C80.6043 68.7019 81.697 72.7003 82.0277 73.4444C82.5484 74.616 83.2824 77.2124 84.4999 77.8889C86.0063 78.7257 86.1926 81.151 88.111 81.8889C89.3974 82.3836 89.4686 82.2464 90.4999 83.2778C91.4497 84.2276 92.1037 84.6981 91.7499 83C91.4947 81.7749 90.9553 79.5602 89.3888 79.5C88.3203 79.4589 86.7797 78.6922 85.9999 79.5833C84.6676 81.1059 81.1692 87.9071 85.9999 86.3889C89.0614 85.4267 88.9141 80.139 92.3888 80C95.1994 79.8876 89.9898 74.7727 88.9999 74.2778C85.9656 72.7606 90.3066 77.4811 90.9444 78.0278C92.6276 79.4705 89.3052 75.9298 88.8888 74.8889C88.4169 73.7091 87.7092 73.3503 86.7222 72.7222C85.2624 71.7933 86.5095 71.6419 87.4999 72.1111C91.9947 74.2402 94.3895 77.5057 93.9722 82.7222C93.6414 86.8571 91.4999 90.5942 91.4999 94.8889C91.4999 95.8938 91.8858 104.706 94.611 101.667C97.6598 98.2661 97.4219 90.1314 97.4999 85.9444C97.5345 84.0874 96.8012 80.7576 97.8055 78.9722C98.4158 77.8871 100.667 74.9995 98.3888 77.5C98.1399 77.7732 91.322 84.5069 91.5833 82.4166C91.9052 79.8413 96.0877 76.9093 97.8888 75.3333C99.2587 74.1347 95.8334 78.8319 94.0555 79.2222C92.6101 79.5395 95.3931 75.6623 95.7777 75.2778C96.7651 74.2904 101.166 72.5721 102.5 72.5C108.221 72.1907 104.121 76.0508 101.222 77.5C100.704 77.7593 99.3872 78.17 99.111 78.7222C98.8627 79.2189 102.731 76.438 103.472 75.75C103.577 75.653 106.307 73.2023 106.389 74.2222C106.635 77.3019 101.149 81.1865 98.861 82.6666C97.1655 83.7637 99.2399 81.2101 99.5277 80.9444C101.208 79.3937 102.976 77.2204 105.278 76.6111C109.071 75.6069 103.592 84.0725 103.5 81.3889C103.447 79.8421 103.368 78.336 103.889 76.8889C104.276 75.8128 105.204 75.0517 104.972 73.7778C104.309 70.1305 98.3507 77.0133 97.7777 77.75C96.9342 78.8345 97.4574 78.4055 98.0555 77.1666C98.5844 76.0709 99.3281 73.8004 100.5 73.1111C103.003 71.6388 101.622 71.1428 99.3333 72.1111C98.7638 72.352 97.4213 73.9215 99.2777 72.6111C100.293 71.8941 102.505 71.2193 103.75 71.0278C105.606 70.7423 107.45 70.4278 109.25 70.0278C113.795 69.0178 116.5 71.6819 116.5 76.1111C116.5 78.8518 116.059 80.7838 115.278 83.3889C115.156 83.7937 115.793 81.4852 115.805 81.4444C116.404 79.5114 117.388 78.3892 118.778 77C120.275 75.5024 120.5 76.1178 120.5 78.1111C120.5 79.3458 120.5 89.3573 120.5 83.2222C120.5 78.7797 115.885 86.3225 115.611 88C115.207 90.4737 116.728 87.6096 117 86.8889C117.591 85.3243 117.673 83.4246 117.972 81.7778C118.477 78.9993 118 82.0858 118 83.5555C118 85.4908 117.681 87.7616 118.028 89.6666C118.184 90.5235 121.563 87.1523 121.889 86.5C122.539 85.1996 122 82.3406 122 80.8889C122 80.4483 121.772 78.4573 122.111 79C122.907 80.2738 123.5 80.0375 123.5 81.75C123.5 83.3126 124.063 86.4012 123.222 87.7222C121.378 90.62 121.5 89.4329 121.5 86.6111C121.5 83.7062 121.343 82.0999 120.111 79.5C118.785 76.7005 115.969 82.7596 114.75 84.1666C113.929 85.1136 113.195 85.9549 112.333 86.8889C112.221 87.0101 111.983 87.8536 111.889 87.8889C111.502 88.0339 111.5 84.8173 111.5 84.5555C111.5 82.5322 112.5 80.7393 112.5 78.7778C112.5 77.3101 112.46 81.2536 112.389 81.7222C112.17 83.1702 111.414 85.2849 111.583 86.7222C111.872 89.1761 113.345 83.7354 113.389 83.4444C113.607 81.9857 114.977 75.7633 113.667 80.5278C113.234 82.1023 111.034 88.129 111.611 83.2222C111.771 81.8656 111.822 79.1416 112.75 78.0278C112.997 77.7316 113.545 76.1829 113.417 75.8611C113.057 74.9632 112.327 77.4731 111.944 78.3611C111.094 80.3331 110.013 82.1179 109 84C106.512 88.6197 109.461 77.6345 109.5 76.6111C109.557 75.1151 112.5 72.4635 112.5 75.6111C112.5 77.6297 110.022 86.4653 113.25 81.4444C114.484 79.524 116.028 77.8164 114.5 75.3889C113.152 73.2475 110.571 74 108.278 74C106.933 74 106.037 74.0782 105 75C104.082 75.8158 105.532 73.9221 106.222 73.5278C107.303 72.9099 111.794 72.3263 110.222 70.3055C109.285 69.1001 106.85 68.9325 105.5 69C104.386 69.0557 103.716 70 102.583 70C101.923 70 103.841 69.5347 104.5 69.5C108.115 69.3097 111.922 68.1141 115.222 70C116.403 70.6747 118 73.1518 118 74.5C118 75.7446 117.389 80.7664 117.5 77C117.548 75.3513 118.878 72.4126 117.75 70.8333C117.703 70.7675 119.188 72.3319 119.389 72.8889C119.823 74.0948 119.541 76.0182 119.472 77.2222C119.342 79.4968 117.97 82.5755 116 83.8889C115.215 84.4122 115.168 85.5775 114.278 86.3055C112.823 87.4962 111.536 88.9386 110 90.1111C107.304 92.1689 104.348 94.736 102.028 97.25C99.7422 99.7259 98.1189 101.5 94.4444 101.5C91.4194 101.5 88.9117 100.437 86.2777 99C83.2377 97.3418 81.704 96.8502 81.3888 93.2778C81.1957 91.0893 79.793 85.7257 82.3055 84.3055C85.6349 82.4237 90.6035 82.2462 93.9999 83.9444C98.7444 86.3167 99.045 90.4487 99.9999 95.1111C100.241 96.2877 100.989 98.5653 100.417 99.8055C99.0192 102.833 92.476 103.247 89.7777 101.944C87.6418 100.913 86.2857 99.2784 85.2222 97.2222C83.8853 94.6375 82.0449 91.75 82.7222 97.0555C83.8606 105.973 90.5766 111.064 97.3888 103.778C101.727 99.1373 104.664 93.1833 109.278 88.8333C111.314 86.9136 112.606 84.7767 114.25 82.5278C114.846 81.7121 119.631 76.6187 120.722 78.3333C121.954 80.2684 119.646 83.6987 118.417 85C114.935 88.6859 110.777 91.3975 106.222 93.5C104.288 94.3924 107.118 91.2067 107.389 90.9444C108.47 89.8956 113.555 87.4075 110 88" stroke="white" stroke-width="3" stroke-linecap="round"/>
<path d="M121.125 70.6379C119.529 69.1263 117.634 67.9271 115.548 67.1089C113.462 66.2907 111.227 65.8696 108.969 65.8696C106.711 65.8696 104.475 66.2907 102.39 67.1089C100.304 67.9271 98.4086 69.1263 96.8125 70.6379L93.5 73.7738L90.1875 70.6379C86.9635 67.5859 82.5907 65.8712 78.0313 65.8712C73.4718 65.8712 69.099 67.5859 65.875 70.6379C62.651 73.69 60.8397 77.8296 60.8397 82.1459C60.8397 86.4622 62.651 90.6017 65.875 93.6538L93.5 119.805L121.125 93.6538C122.722 92.1428 123.989 90.3488 124.853 88.3742C125.717 86.3996 126.162 84.2832 126.162 82.1459C126.162 80.0085 125.717 77.8921 124.853 75.9175C123.989 73.943 122.722 72.1489 121.125 70.6379Z" stroke="white" stroke-width="4" stroke-linecap="round" stroke-linejoin="round"/>
<defs>
<linearGradient id="paint0_linear_20_13" x1="487" y1="217.816" x2="487" y2="1047.18" gradientUnits="userSpaceOnUse">
<stop stop-color="#02F4ED"/>
<stop offset="0.334" stop-color="#02B7D3"/>
<stop offset="0.544" stop-color="#0F6B8A"/>
<stop offset="1"/>
</linearGradient>
<linearGradient id="paint1_linear_20_13" x1="9.67075" y1="1.93358e-06" x2="173.329" y2="178" gradientUnits="userSpaceOnUse">
<stop stop-color="#00527C"/>
<stop offset="0.46074" stop-color="#0074AF"/>
<stop offset="1" stop-color="#0096E2"/>
</linearGradient>
</defs>
</svg>
